<svg width="71" height="71" viewBox="0 0 71 71" fill="none" xmlns="http://www.w3.org/2000/svg">
<g clip-path="url(#clip0_309_971)">
<path d="M67.8696 37.0727C67.8841 37.0582 67.8841 37.0582 67.8986 37.0437C67.9421 36.9857 67.9855 36.9422 68.0145 36.8843C68.029 36.8698 68.029 36.8553 68.0435 36.8408C68.0725 36.7828 68.116 36.7248 68.145 36.6669C68.145 36.6524 68.1595 36.6379 68.1595 36.6379C68.1884 36.5799 68.2174 36.5219 68.2464 36.4495C68.2464 36.435 68.2464 36.435 68.2609 36.4205C68.2899 36.3625 68.3044 36.2901 68.3334 36.2176C68.3334 36.2031 68.3334 36.1886 68.3479 36.1886C68.3624 36.1161 68.3913 36.0582 68.3913 35.9857C68.3913 35.9567 68.3913 35.9422 68.4058 35.9132C68.4203 35.8553 68.4203 35.7973 68.4348 35.7393C68.4493 35.6524 68.4493 35.5799 68.4493 35.493C68.4493 35.406 68.4493 35.3335 68.4348 35.2466C68.4348 35.1886 68.4203 35.1306 68.4058 35.0727C68.4058 35.0437 68.4058 35.0292 68.3913 35.0002C68.3768 34.9277 68.3624 34.8698 68.3479 34.7973C68.3479 34.7828 68.3479 34.7683 68.3334 34.7683C68.3189 34.6959 68.2899 34.6379 68.2609 34.5654C68.2609 34.5509 68.2609 34.5509 68.2464 34.5364C68.2174 34.4785 68.1884 34.406 68.1595 34.348C68.1595 34.3335 68.145 34.319 68.145 34.319C68.116 34.2611 68.087 34.2031 68.0435 34.1451C68.029 34.1306 68.029 34.1161 68.0145 34.1016C67.9711 34.0437 67.9421 33.9857 67.8986 33.9422C67.8841 33.9277 67.8841 33.9277 67.8696 33.9132C67.8116 33.8553 67.7682 33.7828 67.6957 33.7248L53.3624 19.406C52.3913 18.435 50.8116 18.435 49.8406 19.406C48.8696 20.377 48.8696 21.9567 49.8406 22.9277L59.9276 33.0147H19.8261C18.4493 33.0147 17.3334 34.1306 17.3334 35.493C17.3334 36.8698 18.4493 37.9857 19.8261 37.9857H59.9421L49.9276 48.0002C48.9566 48.9712 48.9566 50.5509 49.9276 51.5219C50.4058 52.0002 51.0435 52.2466 51.6812 52.2466C52.3189 52.2466 52.9566 52.0002 53.4348 51.5219L67.6812 37.2756C67.7537 37.1886 67.8116 37.1306 67.8696 37.0727Z" fill="white"/>
<path d="M16.0435 4.97101H34.5943C35.9711 4.97101 37.087 3.85507 37.087 2.49275C37.087 1.11594 35.9711 0 34.5943 0H16.0435C8.60875 0 2.55078 6.05797 2.55078 13.4928V57.5072C2.55078 64.942 8.60875 71 16.0435 71H34.2899C35.6667 71 36.7827 69.8841 36.7827 68.5217C36.7827 67.1449 35.6667 66.029 34.2899 66.029H16.0435C11.3479 66.029 7.5218 62.2029 7.5218 57.5072V13.4928C7.53629 8.78261 11.3479 4.97101 16.0435 4.97101Z" fill="white"/>
</g>
<defs>
<clipPath id="clip0_309_971">
<rect width="71" height="71" fill="white"/>
</clipPath>
</defs>
</svg>
