<svg width="58" height="58" viewBox="0 0 58 58" fill="none" xmlns="http://www.w3.org/2000/svg">
<path d="M57.0336 36.7244C53.4667 36.7244 50.5639 33.8216 50.5639 30.2547C50.5639 29.7202 50.1318 29.2881 49.5972 29.2881C49.0627 29.2881 48.6306 29.7202 48.6306 30.2547C48.6306 34.8888 52.3995 38.6577 57.0336 38.6577C57.5681 38.6577 58.0002 38.2256 58.0002 37.691C58.0002 37.1565 57.5672 36.7244 57.0336 36.7244Z" fill="white"/>
<path d="M56.3126 34.4606C56.8471 34.4606 57.2792 34.0285 57.2792 33.494C57.2792 32.9594 56.8471 32.5274 56.3126 32.5274C55.4562 32.5274 54.7612 31.8314 54.7612 30.9759C54.7612 30.4414 54.3291 30.0093 53.7945 30.0093C53.26 30.0093 52.8279 30.4414 52.8279 30.9759C52.8269 32.8976 54.39 34.4606 56.3126 34.4606Z" fill="white"/>
<path d="M19.3353 2.89225C22.9031 2.89225 25.805 5.79506 25.805 9.36194C25.805 9.89649 26.238 10.3286 26.7716 10.3286C27.3052 10.3286 27.7382 9.89649 27.7382 9.36194C27.7382 4.72789 23.9684 0.958984 19.3353 0.958984C18.8017 0.958984 18.3687 1.39107 18.3687 1.92562C18.3687 2.46017 18.8007 2.89225 19.3353 2.89225Z" fill="white"/>
<path d="M19.0896 6.12288C19.0896 6.65743 19.5227 7.08952 20.0562 7.08952C20.9117 7.08952 21.6067 7.7855 21.6067 8.64097C21.6067 9.17552 22.0398 9.6076 22.5734 9.6076C23.1069 9.6076 23.54 9.17552 23.54 8.64097C23.54 6.7193 21.9769 5.15625 20.0562 5.15625C19.5227 5.15625 19.0896 5.58834 19.0896 6.12288Z" fill="white"/>
</svg>
