<svg width="74" height="74" viewBox="0 0 74 74" fill="none" xmlns="http://www.w3.org/2000/svg">
<g clip-path="url(#clip0_309_977)">
<path d="M36.0679 34.8433L2.07995 34.8433C0.924422 34.8433 -5.11832e-07 35.7677 -4.61322e-07 36.9232C-4.10812e-07 38.0788 0.924422 39.0032 2.07995 39.0032L36.0679 39.0032C37.0385 43.8256 41.3063 47.477 46.4214 47.477C51.5365 47.477 55.8043 43.8256 56.7749 39.0032L71.9046 39.0032C73.0602 39.0032 73.9846 38.0788 73.9846 36.9232C73.9846 35.7677 73.0602 34.8433 71.9046 34.8433L56.7749 34.8433C55.8043 30.0209 51.5365 26.3694 46.4214 26.3694C41.3217 26.3694 37.0385 30.0055 36.0679 34.8433ZM52.8153 36.9232C52.8153 40.4514 49.9496 43.3171 46.4214 43.3171C42.8932 43.3171 40.0275 40.4514 40.0275 36.9232C40.0275 33.395 42.8932 30.5293 46.4214 30.5293C49.9496 30.5293 52.8153 33.395 52.8153 36.9232Z" fill="white"/>
<path d="M18.6271 60.3111L2.07995 60.3111C0.924422 60.3111 -5.11832e-07 61.2355 -4.61322e-07 62.391C-4.10812e-07 63.5465 0.924422 64.471 2.07995 64.471L18.6271 64.471C19.5978 69.2934 23.8655 72.9448 28.9806 72.9448C34.0958 72.9448 38.3635 69.2934 39.3342 64.471L71.9046 64.471C73.0602 64.471 73.9846 63.5465 73.9846 62.391C73.9846 61.2355 73.0602 60.3111 71.9046 60.3111L39.3188 60.3111C38.3481 55.4886 34.0804 51.8372 28.9652 51.8372C23.8501 51.8372 19.5978 55.4886 18.6271 60.3111ZM35.3746 62.391C35.3746 65.9192 32.5089 68.7849 28.9806 68.7849C25.4524 68.7849 22.5867 65.9192 22.5867 62.391C22.5867 58.8628 25.4524 55.9971 28.9806 55.9971C32.5088 55.9971 35.3746 58.8782 35.3746 62.391Z" fill="white"/>
<path d="M18.6271 9.52931L2.07995 9.52931C0.924422 9.52931 -5.11832e-07 10.4537 -4.61322e-07 11.6093C-4.10812e-07 12.7648 0.924422 13.6892 2.07995 13.6892L18.6271 13.6892C19.5978 18.5116 23.8655 22.1631 28.9806 22.1631C34.0958 22.1631 38.3635 18.5116 39.3342 13.6892L71.92 13.6892C73.0756 13.6892 74 12.7648 74 11.6093C74 10.4537 73.0756 9.52931 71.92 9.52931L39.3188 9.52931C38.3481 4.70691 34.0804 1.05544 28.9652 1.05544C23.8501 1.05544 19.5978 4.6915 18.6271 9.52931ZM35.3746 11.6093C35.3746 15.1375 32.5089 18.0032 28.9806 18.0032C25.4524 18.0032 22.5867 15.1375 22.5867 11.6093C22.5867 8.08105 25.4524 5.21534 28.9806 5.21534C32.5088 5.21534 35.3746 8.08105 35.3746 11.6093Z" fill="white"/>
</g>
<defs>
<clipPath id="clip0_309_977">
<rect width="74" height="74" fill="white" transform="translate(0 74) rotate(-90)"/>
</clipPath>
</defs>
</svg>
